<svg xmlns="http://www.w3.org/2000/svg" xmlns:xlink="http://www.w3.org/1999/xlink" viewBox="0 0 200 200.12"><defs><style>.cls-1{fill:url(#무제_그라디언트_222);}.cls-2{fill:#4d4d4d;}.cls-3{fill:none;}.cls-4{fill:url(#무제_그라디언트_270);}.cls-5{fill:url(#무제_그라디언트_254);}.cls-6{fill:url(#무제_그라디언트_254-2);}.cls-7{fill:url(#무제_그라디언트_195);}.cls-8{fill:url(#무제_그라디언트_195-2);}.cls-9{fill:url(#무제_그라디언트_239);}.cls-10{fill:url(#무제_그라디언트_239-2);}</style><linearGradient id="무제_그라디언트_222" x1="345.62" y1="267.01" x2="366.33" y2="267.01" gradientTransform="translate(-244.32 -155.24)" gradientUnits="userSpaceOnUse"><stop offset="0" stop-color="#6a3e00"/><stop offset="0.07" stop-color="#794900"/><stop offset="0.21" stop-color="#9f6700"/><stop offset="0.25" stop-color="#a96f00"/><stop offset="0.34" stop-color="#a56c00"/><stop offset="0.44" stop-color="#996300"/><stop offset="0.53" stop-color="#865400"/><stop offset="0.63" stop-color="#6a3f00"/><stop offset="0.71" stop-color="#4c2700"/><stop offset="0.81" stop-color="#502a00"/><stop offset="0.92" stop-color="#5c3300"/><stop offset="1" stop-color="#6b3f00"/></linearGradient><linearGradient id="무제_그라디언트_270" x1="340.24" y1="161.29" x2="371.94" y2="201.57" gradientTransform="translate(-304.94 -130.13)" gradientUnits="userSpaceOnUse"><stop offset="0.04" stop-color="#bababa"/><stop offset="0.08" stop-color="#adadad"/><stop offset="0.15" stop-color="#8b8b8b"/><stop offset="0.24" stop-color="#535353"/><stop offset="0.24" stop-color="#525252"/><stop offset="0.51" stop-color="#b3b3b3"/><stop offset="0.58" stop-color="#a8a8a8"/><stop offset="0.71" stop-color="#898989"/><stop offset="0.88" stop-color="#595959"/><stop offset="1" stop-color="#333"/></linearGradient><linearGradient id="무제_그라디언트_254" x1="250.95" y1="194.16" x2="332.24" y2="194.16" gradientTransform="translate(-328.86 174.68) rotate(-45)" gradientUnits="userSpaceOnUse"><stop offset="0" stop-color="#fff"/><stop offset="0.25" stop-color="#fff" stop-opacity="0.99"/><stop offset="0.41" stop-color="#fff" stop-opacity="0.96"/><stop offset="0.55" stop-color="#fff" stop-opacity="0.9"/><stop offset="0.67" stop-color="#fff" stop-opacity="0.82"/><stop offset="0.78" stop-color="#fff" stop-opacity="0.71"/><stop offset="0.89" stop-color="#fff" stop-opacity="0.58"/><stop offset="0.98" stop-color="#fff" stop-opacity="0.43"/><stop offset="1" stop-color="#fff" stop-opacity="0.4"/></linearGradient><linearGradient id="무제_그라디언트_254-2" x1="4783.2" y1="194.16" x2="4864.5" y2="194.16" gradientTransform="matrix(-0.71, 0.71, 0.71, 0.71, 3379.35, -3533.54)" xlink:href="#무제_그라디언트_254"/><radialGradient id="무제_그라디언트_195" cx="341.42" cy="172.52" r="4.1" gradientTransform="translate(-328.86 174.68) rotate(-45)" gradientUnits="userSpaceOnUse"><stop offset="0" stop-color="#c9c9c9"/><stop offset="0.51" stop-color="gray"/><stop offset="0.68" stop-color="#525252"/><stop offset="0.82" stop-color="#343434"/><stop offset="0.9" stop-color="#292929"/></radialGradient><radialGradient id="무제_그라디언트_195-2" cx="369.73" cy="172.52" r="4.1" xlink:href="#무제_그라디언트_195"/><radialGradient id="무제_그라디언트_239" cx="341.42" cy="189.04" r="4.1" gradientTransform="translate(-328.86 174.68) rotate(-45)" gradientUnits="userSpaceOnUse"><stop offset="0" stop-color="#999"/><stop offset="0.51" stop-color="#5c5c5c"/><stop offset="0.55" stop-color="#525252"/><stop offset="0.69" stop-color="#343434"/><stop offset="0.77" stop-color="#292929"/></radialGradient><radialGradient id="무제_그라디언트_239-2" cx="369.73" cy="189.04" r="4.1" xlink:href="#무제_그라디언트_239"/></defs><g id="레이어_2" data-name="레이어 2"><g id="레이어_2-2" data-name="레이어 2"><rect class="cls-1" x="101.3" y="-2.82" width="20.71" height="229.17" transform="translate(-46.33 111.69) rotate(-45)"/><path class="cls-2" d="M152.47,4.05C93.39,17.87,32.79,75.9,10.44,132a136.76,136.76,0,0,0-4.59,13.46c-.75,2.38-1.18,4.74-1.91,7.15a57.49,57.49,0,0,1-3.5-14.41C-6,73.6,59.08,4.85,122.87.23c10.07-.73,20.31.24,29.6,3.82Z"/><path class="cls-3" d="M3.94,152.58S-1.49,104.3,51.35,51.46,152.47,4.05,152.47,4.05"/><rect class="cls-4" x="27.3" y="33.08" width="47.46" height="36.14" rx="2.29" transform="translate(-21.22 51.07) rotate(-45)"/><path class="cls-5" d="M35.53,69.21,25.3,59C7.86,82.66-2.29,110.79.44,138.17a57.49,57.49,0,0,0,3.5,14.41S-.31,114.63,35.53,69.21Z"/><path class="cls-6" d="M69.09,35.65,58.86,25.42C82.54,8,110.67-2.17,138.06.56a57.69,57.69,0,0,1,14.41,3.49S114.52-.2,69.09,35.65Z"/><circle class="cls-7" cx="35.13" cy="55.25" r="3.82"/><circle class="cls-8" cx="55.16" cy="35.23" r="3.82"/><circle class="cls-9" cx="46.81" cy="66.93" r="3.82"/><circle class="cls-10" cx="66.84" cy="46.91" r="3.82"/></g></g></svg>