<svg xmlns="http://www.w3.org/2000/svg" xmlns:xlink="http://www.w3.org/1999/xlink" viewBox="0 0 202.44 202.33"><defs><style>.cls-1{fill:url(#무제_그라디언트_3380);}.cls-2{fill:#ba7000;}.cls-3{fill:none;}.cls-4{fill:url(#무제_그라디언트_52);}.cls-5{fill:url(#무제_그라디언트_565);}.cls-6{fill:url(#무제_그라디언트_565-2);}.cls-7{fill:url(#무제_그라디언트_106);}.cls-8{fill:url(#무제_그라디언트_118);}.cls-9{fill:url(#무제_그라디언트_118-2);}.cls-10{fill:url(#무제_그라디언트_106-2);}</style><linearGradient id="무제_그라디언트_3380" x1="251.82" y1="-1087.85" x2="267.56" y2="-1087.85" gradientTransform="matrix(0.74, 0, 0, -1.03, -76.54, -1007.36)" gradientUnits="userSpaceOnUse"><stop offset="0" stop-color="#de9700"/><stop offset="0.16" stop-color="#fff57f"/><stop offset="0.45" stop-color="#d3b044"/><stop offset="0.78" stop-color="#a16000"/><stop offset="1" stop-color="#de9700"/></linearGradient><linearGradient id="무제_그라디언트_52" x1="379.27" y1="-1221.69" x2="410.49" y2="-1182.02" gradientTransform="matrix(1, 0, 0, -1, -344.36, -1151.71)" gradientUnits="userSpaceOnUse"><stop offset="0" stop-color="#fff57f"/><stop offset="0.1" stop-color="#e7c750"/><stop offset="0.29" stop-color="#be7b00"/><stop offset="0.75" stop-color="#f7d14a"/><stop offset="0.78" stop-color="#f4c940"/><stop offset="0.87" stop-color="#e8ae1d"/><stop offset="0.95" stop-color="#e19d08"/><stop offset="1" stop-color="#de9700"/></linearGradient><linearGradient id="무제_그라디언트_565" x1="291.26" y1="-1189.3" x2="371.38" y2="-1189.3" gradientTransform="matrix(-0.71, 0.71, 0.71, 0.71, 1179.49, 621.09)" gradientUnits="userSpaceOnUse"><stop offset="0.26" stop-color="#ffe5a4"/><stop offset="0.34" stop-color="#ffe49c" stop-opacity="0.97"/><stop offset="0.48" stop-color="#ffe086" stop-opacity="0.89"/><stop offset="0.65" stop-color="#ffda61" stop-opacity="0.75"/><stop offset="0.84" stop-color="#ffd12f" stop-opacity="0.57"/><stop offset="1" stop-color="#ffc900" stop-opacity="0.4"/></linearGradient><linearGradient id="무제_그라디언트_565-2" x1="6447.7" y1="-1189.3" x2="6527.81" y2="-1189.3" gradientTransform="translate(-3732.05 5532.63) rotate(-45)" xlink:href="#무제_그라디언트_565"/><radialGradient id="무제_그라디언트_106" cx="380.22" cy="-1210.8" r="4.4" gradientTransform="matrix(-0.71, 0.71, 0.71, 0.71, 1179.49, 621.09)" gradientUnits="userSpaceOnUse"><stop offset="0.07" stop-color="#f7d14a"/><stop offset="0.21" stop-color="#e6b734"/><stop offset="0.42" stop-color="#d09518"/><stop offset="0.6" stop-color="#c38006"/><stop offset="0.71" stop-color="#be7900"/><stop offset="1" stop-color="#e7a400"/></radialGradient><radialGradient id="무제_그라디언트_118" cx="380.22" cy="-1194.52" r="4.4" gradientTransform="matrix(-0.71, 0.71, 0.71, 0.71, 1179.49, 621.09)" gradientUnits="userSpaceOnUse"><stop offset="0.07" stop-color="#f7d14a"/><stop offset="0.21" stop-color="#e6b734"/><stop offset="0.42" stop-color="#d09518"/><stop offset="0.6" stop-color="#c38006"/><stop offset="0.71" stop-color="#be7900"/><stop offset="1" stop-color="#d89500"/></radialGradient><radialGradient id="무제_그라디언트_118-2" cx="408.13" cy="-1194.52" r="4.4" xlink:href="#무제_그라디언트_118"/><radialGradient id="무제_그라디언트_106-2" cx="408.13" cy="-1210.8" r="4.4" xlink:href="#무제_그라디언트_106"/></defs><g id="레이어_2" data-name="레이어 2"><g id="레이어_2-2" data-name="레이어 2"><rect class="cls-1" x="110.05" y="-0.82" width="11.66" height="233.17" transform="translate(279.68 115.69) rotate(135)"/><path class="cls-2" d="M4,150.25C17.61,92,74.8,32.32,130.05,10.29a135.49,135.49,0,0,1,13.27-4.52c2.34-.74,4.67-1.17,7-1.89A56.8,56.8,0,0,0,136.16.43C72.53-5.91,4.78,58.23.22,121.09-.5,131,.46,141.1,4,150.25Z"/><path class="cls-3" d="M150.36,3.88S102.78-1.46,50.72,50.6,4,150.25,4,150.25"/><rect class="cls-4" x="27.02" y="32.48" width="46.77" height="35.61" rx="2.29" transform="translate(121.61 50.21) rotate(135)"/><path class="cls-5" d="M68.2,35,58.12,24.93c23.34-17.19,51.06-27.19,78-24.5a56.8,56.8,0,0,1,14.2,3.45S113-.31,68.2,35Z"/><path class="cls-6" d="M35.13,68.09,25.05,58C7.86,81.34-2.14,109.06.55,136.05A56.9,56.9,0,0,0,4,150.25S-.19,112.85,35.13,68.09Z"/><circle class="cls-7" cx="54.45" cy="34.62" r="3.76"/><circle class="cls-8" cx="65.96" cy="46.13" r="3.76"/><circle class="cls-9" cx="46.23" cy="65.87" r="3.76"/><circle class="cls-10" cx="34.71" cy="54.35" r="3.76"/></g></g></svg>