<svg xmlns="http://www.w3.org/2000/svg" viewBox="0 0 51.55 51.55"><defs><style>.cls-1{opacity:0.65;}.cls-2,.cls-4{fill:none;stroke:#fff;stroke-miterlimit:10;}.cls-2{stroke-width:0.75px;}.cls-3{fill:#fff;}</style></defs><g id="레이어_2" data-name="레이어 2"><g id="레이어_2-2" data-name="레이어 2"><circle class="cls-1" cx="25.77" cy="25.77" r="25.4"/><circle class="cls-2" cx="25.77" cy="25.77" r="25.4"/><rect class="cls-3" x="26.18" y="21.91" width="1.67" height="8.58"/><polygon class="cls-3" points="42.68 26.2 36.31 19.38 36.31 21.91 29.34 21.91 29.34 30.49 36.31 30.49 36.31 33.03 42.68 26.2"/><path class="cls-4" d="M28.93,20.4,29,20v-.06h0l-.16-.72-.42-1.93-.18,0h0l-.53-.11a.32.32,0,0,1-.23-.22l-1-3.32,0-.2-.19,0h0l-1.41-.27h-.09l-.08,0h0l-1.25.55-.18.07-.09,0-.37,0a.31.31,0,0,0-.28.25c-.17.73-.65,2.9-.66,3l-.79,0,0,.25a.25.25,0,0,0,0,.07c-.09.82-.32,2.89-.33,3s.27,1.39.27,1.39l-1.76,2-1.41-.49-.71,1.84-1.1.11-.67,1.26-.06,1.53-.64.23-.77,1.89-1.92,1.15-.49,1.82c-.32.36-1.13,1-1.11,1.46s2.34.26,2.71.26h2l0,.4a.16.16,0,0,0,.05.14l.5.53a.16.16,0,0,0,.13.06h1.23L17,36l.47-.69a.27.27,0,0,0,0-.12l0-.25h1.16c.05,0,.11.21.15.32l.87,2.14a.39.39,0,0,0,.2.2l2.46.9a.27.27,0,0,0,.13,0l4-.37a.21.21,0,0,0,.13,0l1.05-.65a.39.39,0,0,0,.16-.23l.69-2.88h1.66l1.23-.85"/></g></g></svg>