<svg xmlns="http://www.w3.org/2000/svg" viewBox="0 0 51.55 51.55"><defs><style>.cls-1{opacity:0.65;}.cls-2,.cls-4{fill:none;}.cls-2{stroke:#fff;stroke-miterlimit:10;stroke-width:0.75px;}.cls-3{fill:#fff;}</style></defs><g id="레이어_2" data-name="레이어 2"><g id="레이어_2-2" data-name="레이어 2"><circle class="cls-1" cx="25.77" cy="25.77" r="25.4"/><circle class="cls-2" cx="25.77" cy="25.77" r="25.4"/><rect class="cls-3" x="33.52" y="33.92" width="2.53" height="2.89" transform="translate(-14.82 34.96) rotate(-45)"/><rect class="cls-3" x="25.66" y="19.01" width="2.53" height="16.99" transform="translate(-11.56 27.09) rotate(-45)"/><rect class="cls-3" x="14.62" y="15.98" width="2.53" height="0.98" transform="translate(-6.99 16.06) rotate(-45)"/><path class="cls-4" d="M17.8,22.14a.39.39,0,0,0,.56,0A.39.39,0,0,1,17.8,22.14Z"/><path class="cls-4" d="M21.56,18.39l-2.22-2.22a.38.38,0,0,0-.13-.09.38.38,0,0,1,.13.09Z"/><path class="cls-3" d="M30.1,13.34a8.88,8.88,0,0,0-2.67-.19,14.82,14.82,0,0,0-6.85,2.45l1.84,1.84A23.89,23.89,0,0,1,30.1,13.34Z"/><path class="cls-3" d="M12.61,29.83a6.75,6.75,0,0,0,.15.86v0A16.15,16.15,0,0,1,13.34,29a25.13,25.13,0,0,1,3.52-6L15,21.17A13.71,13.71,0,0,0,12.61,29.83Z"/><path class="cls-3" d="M19.34,16.17a.38.38,0,0,0-.13-.09.32.32,0,0,0-.14,0,.39.39,0,0,0-.28.12l-3.21,3.2a.39.39,0,0,0,0,.55l2.22,2.22a.39.39,0,0,0,.56,0l3.2-3.2a.39.39,0,0,0,0-.55Z"/></g></g></svg>