<svg xmlns="http://www.w3.org/2000/svg" viewBox="0 0 51.55 51.55"><defs><style>.cls-1{opacity:0.65;}.cls-2{fill:none;stroke:#fff;stroke-miterlimit:10;stroke-width:0.75px;}.cls-3{fill:#fff;}</style></defs><g id="레이어_2" data-name="레이어 2"><g id="레이어_2-2" data-name="레이어 2"><circle class="cls-1" cx="25.77" cy="25.77" r="25.4"/><circle class="cls-2" cx="25.77" cy="25.77" r="25.4"/><polyline class="cls-2" points="36.33 27.75 36.33 38.13 29.03 38.13 15.97 38.13 15.22 38.13 15.22 27.75"/><rect class="cls-2" x="17.38" y="30.35" width="11.35" height="7.77"/><path class="cls-3" d="M30.78,31.85v6.28H34.6V31.85Zm1.87,3.9h-1.3V34.61h1.3Z"/><path class="cls-2" d="M18.24,20.11h-3l-1.09,5.78a1.65,1.65,0,0,0,1.62,1.95h0a1.65,1.65,0,0,0,1.64-1.43Z"/><path class="cls-2" d="M21.25,20.11h-3L17.45,26a1.64,1.64,0,0,0,1.63,1.87h0a1.65,1.65,0,0,0,1.65-1.51Z"/><path class="cls-2" d="M24.27,20.11h-3l-.48,5.95a1.65,1.65,0,0,0,1.64,1.78h0a1.64,1.64,0,0,0,1.65-1.6Z"/><path class="cls-2" d="M27.28,20.11h-3l-.17,6a1.65,1.65,0,0,0,1.65,1.69h.05a1.64,1.64,0,0,0,1.64-1.69Z"/><path class="cls-2" d="M30.3,20.11h-3l.17,6.13a1.64,1.64,0,0,0,1.65,1.6h0a1.65,1.65,0,0,0,1.65-1.78Z"/><path class="cls-2" d="M33.31,20.11h-3l.5,6.22a1.65,1.65,0,0,0,1.64,1.51h0A1.65,1.65,0,0,0,34.1,26Z"/><path class="cls-2" d="M36.33,20.11h-3l.85,6.3a1.65,1.65,0,0,0,1.64,1.43h0a1.65,1.65,0,0,0,1.62-1.95Z"/><line class="cls-2" x1="17.38" y1="32.57" x2="28.73" y2="32.57"/><path class="cls-3" d="M21.17,16.59a.69.69,0,0,1-.81.81H17.83v-.86H20c.09,0,.15,0,.18-.05s.05-.09.05-.18V16a.85.85,0,0,0,0-.23.31.31,0,0,0-.17-.17l-1.63-.78a1.14,1.14,0,0,1-.27-.17.72.72,0,0,1-.19-.2.87.87,0,0,1-.1-.24,1.69,1.69,0,0,1,0-.33v-.49a.79.79,0,0,1,.89-.89H21v.86H19a.26.26,0,0,0-.18.05s-.05.09-.05.18v.13a.73.73,0,0,0,0,.22.35.35,0,0,0,.17.17l1.63.77a2.29,2.29,0,0,1,.28.17,1.12,1.12,0,0,1,.18.2.69.69,0,0,1,.1.25,1.55,1.55,0,0,1,0,.33Z"/><path class="cls-3" d="M25.36,17.4h-1V15.24H22.67V17.4h-1V12.49h1v1.9h1.72v-1.9h1Z"/><path class="cls-3" d="M29.7,16.12a1.29,1.29,0,0,1-.1.53,1.15,1.15,0,0,1-.26.41,1.27,1.27,0,0,1-.41.27,1.51,1.51,0,0,1-.53.09H27.25a1.51,1.51,0,0,1-.53-.09,1.17,1.17,0,0,1-.41-.27,1.33,1.33,0,0,1-.27-.41,1.47,1.47,0,0,1-.09-.53V13.77a1.47,1.47,0,0,1,.09-.53,1.22,1.22,0,0,1,.68-.68,1.51,1.51,0,0,1,.53-.09H28.4a1.51,1.51,0,0,1,.53.09,1.46,1.46,0,0,1,.41.27,1.15,1.15,0,0,1,.26.41,1.29,1.29,0,0,1,.1.53Zm-1.45.45a.43.43,0,0,0,.47-.48V13.8a.43.43,0,0,0-.47-.48H27.4a.48.48,0,0,0-.35.13.45.45,0,0,0-.13.35v2.29a.45.45,0,0,0,.13.35.48.48,0,0,0,.35.13Z"/><path class="cls-3" d="M31.26,17.4h-1V12.49h2.24a1.43,1.43,0,0,1,1,.29,1,1,0,0,1,.34.83v.74a1,1,0,0,1-.34.83,1.38,1.38,0,0,1-1,.29H31.26Zm1.18-2.78a.5.5,0,0,0,.31-.1.45.45,0,0,0,.11-.33v-.42a.43.43,0,0,0-.11-.32.45.45,0,0,0-.31-.1H31.26v1.27Z"/></g></g></svg>