<svg xmlns="http://www.w3.org/2000/svg" viewBox="0 0 51.55 51.55"><defs><style>.cls-1{opacity:0.65;}.cls-2{fill:none;stroke:#fff;stroke-miterlimit:10;stroke-width:0.75px;}.cls-3{fill:#fff;}</style></defs><g id="레이어_2" data-name="레이어 2"><g id="레이어_2-2" data-name="레이어 2"><circle class="cls-1" cx="25.77" cy="25.77" r="25.4"/><circle class="cls-2" cx="25.77" cy="25.77" r="25.4"/><rect class="cls-3" x="14.1" y="21.71" width="1.94" height="8.12"/><polygon class="cls-3" points="26.47 36.21 17.97 29.83 17.97 21.71 26.47 15.34 26.47 36.21"/><path class="cls-3" d="M28.77,28.82,28,27.53a2,2,0,0,0,1-1.76A2.06,2.06,0,0,0,28,24l.75-1.28a3.52,3.52,0,0,1,0,6.09Z"/><path class="cls-3" d="M30.47,31.75l-.75-1.28a5.43,5.43,0,0,0,0-9.39l.75-1.28a6.91,6.91,0,0,1,0,12Z"/><path class="cls-3" d="M32.25,34.81l-.75-1.29a9,9,0,0,0,0-15.5l.75-1.28a10.45,10.45,0,0,1,0,18.07Z"/></g></g></svg>